<svg width="523" height="630" viewBox="0 0 523 630" fill="none" xmlns="http://www.w3.org/2000/svg">
<path d="M38.5 86L19 111.5L231 42L225 36L222.5 33L220 29.5L218.5 25L219 20L221 16L222 14.5L223.5 13L218.5 14L211.5 16L208.5 17L204.5 18H198.5L202 14L207 11.5L214.5 8.5L217 7L218.5 5.5L209 3.5L200 2L190.5 1L180.5 1.5L170.5 3L161 6L146 15L138.5 19.5L129 22L81 41.5L74.5 44.5L70.5 48.5L68 54V59L64 64.5L58.5 69L50.5 73L42.5 78L38.5 86Z" fill="#D9D9D9" fill-opacity="0.09"/>
<path d="M232.5 49L25 143L19 144.5L14 147L11.5 150L11.25 151.5L11 153L14 168L15.5 174L16 178.5L15.5 183L15 185L14 187L13 188.5L12.5 189.5L11 191.5L8.5 193.5L5 196L4 197L3 198L2.5 201L1.5 206.5L1 215.5L2 224.5L3.5 233L4.5 237L6 240.5L8 241.5L10.5 241L175.5 170C142.167 189.833 74.3 229.4 69.5 229C63.5 228.5 18 247 14.5 249C11.7 250.6 12.6667 253 13.5 254L18.5 258C20.9 263.6 36.5 269 44 271C50.5 274 64.7 280.5 69.5 282.5C74.3 284.5 78.1667 282 79.5 280.5C80.3333 277.667 83.3 272 88.5 272C95 272 91.5 274 103 276C114.5 278 116.5 274.5 119.5 275.5C121.9 276.3 126.167 274.5 128 273.5H172.5C177 274 186.8 275.6 190 278C193.2 280.4 195.667 279.333 196.5 278.5L201.5 276L421.5 162.5L422.5 161V159.5L421 157.5L419 154L417 150.5L412 137C409.5 128 406.5 109.5 402 102.5C397.75 95.8894 392.833 97.3333 389.5 99.5L339 119.5L305 133L296.5 135.5L291.5 136.5H288L290 135.5L291 133.5L293 132.5H294.5L334 110L382.5 84C381.7 60 369.333 51.8333 363 50C327 62.5 320.5 55.5 305 43.5L297.5 44.5L287.5 46L274 55.5L267 58.5H260L253.5 55.5L245.5 50L240.5 48.5L232.5 49Z" fill="#D9D9D9" fill-opacity="0.09"/>
<path d="M209 299C207.833 297.5 206.8 294.3 212 293.5L429.5 183C431.5 182 436.3 181.1 439.5 185.5C442.7 189.9 443.833 191.333 444 191.5L454.5 203C455.833 204.5 457.6 208.6 454 213L436 221L408.5 235.5L379 251L376.5 254.5V255.5L382 254.5L459 223.5C461 221.833 465.5 219.5 467.5 223.5C469.5 227.5 475 230.167 477.5 231C480.833 232 488.9 233.9 494.5 233.5C500.1 233.1 507.833 229.333 511 227.5C512.333 226.5 515.4 224.6 517 225C519 225.5 521 227.5 521.5 231C522 234.5 523 239.5 522 245C521.833 245.667 520.8 247.3 518 248.5C515.2 249.7 477.167 267 458.5 275.5C457.372 276.79 455.058 279.326 454.546 279.492C455.34 279.426 463.039 279 463.5 279C463.9 279 499.333 268 517 262.5C511.667 272.167 499.4 291.9 493 293.5C488.5 299.5 473 309.5 472 314.5C470.787 320.565 421.5 367.5 436.5 400.5C436.667 402.5 435.2 407.3 428 410.5C420.8 413.7 293.333 459.5 230.5 482C227.667 484.667 221.9 486.1 221.5 470.5L230 443L232.5 428.5L233 421.5V414.5C233.167 412.5 234.8 408.2 240 407C245.2 405.8 331.833 366.167 374.5 346.5L372.5 343L247 384C243.167 385.5 235.5 384 234.5 374.5C235.5 372 220.034 358.802 213.5 342C210 333 215 306.714 209 299Z" fill="#D9D9D9" fill-opacity="0.09"/>
<path d="M19 111.5L38.5 86L42.5 78L50.5 73L58.5 69L64 64.5L68 59V54L70.5 48.5L74.5 44.5L81 41.5L129 22L138.5 19.5L146 15L161 6L170.5 3L180.5 1.5L190.5 1L200 2L209 3.5L218.5 5.5L217 7L214.5 8.5L207 11.5L202 14L198.5 18H204.5L208.5 17L211.5 16L218.5 14L223.5 13L222 14.5L221 16L219 20L218.5 25L220 29.5L222.5 33L225 36L231 42L19 111.5ZM6 240.5L8 241.5L10.5 241L175.5 170C142.167 189.833 74.3 229.4 69.5 229C63.5 228.5 18 247 14.5 249C11.7 250.6 12.6667 253 13.5 254L18.5 258C20.9 263.6 36.5 269 44 271C50.5 274 64.7 280.5 69.5 282.5C74.3 284.5 78.1667 282 79.5 280.5C80.3333 277.667 83.3 272 88.5 272C95 272 91.5 274 103 276C114.5 278 116.5 274.5 119.5 275.5C121.9 276.3 126.167 274.5 128 273.5H172.5C177 274 186.8 275.6 190 278C193.2 280.4 195.667 279.333 196.5 278.5L201.5 276L421.5 162.5L422.5 161V159.5L421 157.5L419 154L417 150.5L412 137C409.5 128 406.5 109.5 402 102.5C397.75 95.8894 392.833 97.3333 389.5 99.5L339 119.5L305 133L296.5 135.5L291.5 136.5H288L290 135.5L291 133.5L293 132.5H294.5L334 110L382.5 84C381.7 60 369.333 51.8333 363 50C327 62.5 320.5 55.5 305 43.5L297.5 44.5L287.5 46L274 55.5L267 58.5H260L253.5 55.5L245.5 50L240.5 48.5L232.5 49L25 143L19 144.5L14 147L11.5 150L11.25 151.5L11 153L14 168L15.5 174L16 178.5L15.5 183L15 185L14 187L13 188.5L12.5 189.5L11 191.5L8.5 193.5L5 196L4 197L3 198L2.5 201L1.5 206.5L1 215.5L2 224.5L3.5 233L4.5 237L6 240.5ZM209 299C207.833 297.5 206.8 294.3 212 293.5L429.5 183C431.5 182 436.3 181.1 439.5 185.5C442.7 189.9 443.833 191.333 444 191.5L454.5 203C455.833 204.5 457.6 208.6 454 213L436 221L408.5 235.5L379 251L376.5 254.5V255.5L382 254.5L459 223.5C461 221.833 465.5 219.5 467.5 223.5C469.5 227.5 475 230.167 477.5 231C480.833 232 488.9 233.9 494.5 233.5C500.1 233.1 507.833 229.333 511 227.5C512.333 226.5 515.4 224.6 517 225C519 225.5 521 227.5 521.5 231C522 234.5 523 239.5 522 245C521.833 245.667 520.8 247.3 518 248.5C515.2 249.7 477.167 267 458.5 275.5C457.333 276.833 454.9 279.5 454.5 279.5C454 279.5 463 279 463.5 279C463.9 279 499.333 268 517 262.5C511.667 272.167 499.4 291.9 493 293.5C488.5 299.5 473 309.5 472 314.5C470.787 320.565 421.5 367.5 436.5 400.5C436.667 402.5 435.2 407.3 428 410.5C420.8 413.7 293.333 459.5 230.5 482C227.667 484.667 221.9 486.1 221.5 470.5L230 443L232.5 428.5L233 421.5V414.5C233.167 412.5 234.8 408.2 240 407C245.2 405.8 331.833 366.167 374.5 346.5L372.5 343L247 384C243.167 385.5 235.5 384 234.5 374.5C235.5 372 220.034 358.802 213.5 342C210 333 215 306.714 209 299Z" stroke="black" stroke-opacity="0.24" stroke-width="0.5"/>
<path d="M238 498.5C235.2 500.1 235.5 502.167 236 503L244 520.5L247.5 529.5L250.5 538.5C253.5 549.5 253 554.8 253 560C253 565.2 256.491 564.64 258 564C287.5 551.5 353.7 522.1 382.5 510.5C411.3 498.9 422 482 428 466.5C443 449 440.5 425.5 439.5 421C438.7 417.4 436.167 417.5 435 418C370.5 444.167 240.8 496.9 238 498.5Z" fill="#D9D9D9" fill-opacity="0.09"/>
<path d="M262.5 582C250.5 588.8 253.833 598.167 257 602C260.2 612.8 269.333 618.833 273.5 620.5C275.1 624.5 281.167 625.833 284 626C317.5 640 322.5 609 327 606.5C331.5 604 361 587.5 365.5 584C371 579.722 370 570.5 370 570.5C370 570.5 382 558 381.5 556.5C381.053 555.158 381.5 546 385.5 537.5C388.7 530.7 390.167 521 390.5 517C352.833 535.833 274.5 575.2 262.5 582Z" fill="#D9D9D9" fill-opacity="0.09"/>
<path d="M473 475C461.4 477 459.5 483.167 460 486C460 489.833 459.4 498.9 457 504.5C454 511.5 454.5 524 454.5 525C454.5 525.8 457.833 526 459.5 526L454.5 529.5L452 540C451 550.5 454.5 553.5 457 557C459.5 560.5 465 563.5 476.5 558.5C488 553.5 486.5 542 490 533C492.8 525.8 493.167 518.333 493 515.5L472 522L467.5 521.5L470 518.5C493 508 502 497.5 506.5 486C511 474.5 513.5 448.5 513 445.5C512.5 442.5 507.5 439 501.5 444C495.5 449 493 465 488 471C484 475.8 476.333 475.667 473 475Z" fill="#D9D9D9" fill-opacity="0.09"/>
<path d="M238 498.5C235.2 500.1 235.5 502.167 236 503L244 520.5L247.5 529.5L250.5 538.5C253.5 549.5 253 554.8 253 560C253 565.2 256.491 564.64 258 564C287.5 551.5 353.7 522.1 382.5 510.5C411.3 498.9 422 482 428 466.5C443 449 440.5 425.5 439.5 421C438.7 417.4 436.167 417.5 435 418C370.5 444.167 240.8 496.9 238 498.5Z" stroke="black" stroke-opacity="0.24" stroke-width="0.5"/>
<path d="M262.5 582C250.5 588.8 253.833 598.167 257 602C260.2 612.8 269.333 618.833 273.5 620.5C275.1 624.5 281.167 625.833 284 626C317.5 640 322.5 609 327 606.5C331.5 604 361 587.5 365.5 584C371 579.722 370 570.5 370 570.5C370 570.5 382 558 381.5 556.5C381.053 555.158 381.5 546 385.5 537.5C388.7 530.7 390.167 521 390.5 517C352.833 535.833 274.5 575.2 262.5 582Z" stroke="black" stroke-opacity="0.24" stroke-width="0.5"/>
<path d="M473 475C461.4 477 459.5 483.167 460 486C460 489.833 459.4 498.9 457 504.5C454 511.5 454.5 524 454.5 525C454.5 525.8 457.833 526 459.5 526L454.5 529.5L452 540C451 550.5 454.5 553.5 457 557C459.5 560.5 465 563.5 476.5 558.5C488 553.5 486.5 542 490 533C492.8 525.8 493.167 518.333 493 515.5L472 522L467.5 521.5L470 518.5C493 508 502 497.5 506.5 486C511 474.5 513.5 448.5 513 445.5C512.5 442.5 507.5 439 501.5 444C495.5 449 493 465 488 471C484 475.8 476.333 475.667 473 475Z" stroke="black" stroke-opacity="0.24" stroke-width="0.5"/>
</svg>
